<?xml version="1.0"?>
<svg xmlns="http://www.w3.org/2000/svg" xmlns:xlink="http://www.w3.org/1999/xlink" xmlns:svgjs="http://svgjs.com/svgjs" version="1.1" width="512" height="512" x="0" y="0" viewBox="0 0 512 512" style="enable-background:new 0 0 512 512" xml:space="preserve" class=""><g><g xmlns="http://www.w3.org/2000/svg" id="outline"><path d="m494.146 362.879-38.546-46.257-7.6-53.191v-139.431a28 28 0 0 0 -56 0v75.435a.565.565 0 0 1 -1.125.079l-19.864-139.892a27.833 27.833 0 0 0 -33.017-23.38l-.5.1a28.377 28.377 0 0 0 -22.582 32.075c5.325 35.156 16.449 109.259 19.732 131.133a.356.356 0 0 1 -.09.311.364.364 0 0 1 -.3.138.4.4 0 0 1 -.38-.283l-41.057-136.994a27.4 27.4 0 0 0 -31.768-19.09l-.5.1a28.184 28.184 0 0 0 -21.426 36.137c10.5 33.191 30.206 100.572 38.2 128.042a.143.143 0 0 1 -.108.089.1.1 0 0 1 -.093-.06l-43.482-95.306c-.035-.079-.072-.156-.111-.234a30.646 30.646 0 0 0 -55.2 26.628l50.659 108.072-48.8-11.219c-.074-.017-.149-.033-.224-.048a42.9 42.9 0 0 0 -38.882 11.8q-.213.213-.41.443c-.214.25-21.54 25.145-33.944 39.907a58.049 58.049 0 0 0 -12.8 27.775l-5.538 33.227-47.046 70.577a8 8 0 0 0 2.687 11.384l112 64a8 8 0 0 0 10.479-2.3l38.375-53.725 27.631-7.9a111.342 111.342 0 0 0 47.684-27.921c1.264 1.509 2.571 2.981 3.963 4.374l.307.306a68.909 68.909 0 0 0 37.824 19.42c9.686 1.582 20.415 3.362 25.462 4.2l38.1 45.717a8 8 0 0 0 5.944 2.883h.2a8 8 0 0 0 5.878-2.574l96-104a8 8 0 0 0 .268-10.547zm-224.917 28.578a95.3 95.3 0 0 1 -41.108 24.189l-30.321 8.662a8 8 0 0 0 -4.312 3.043l-35.8 50.116-98.281-56.16 43.245-64.869a8 8 0 0 0 1.235-3.123l5.82-34.921a42.037 42.037 0 0 1 9.271-20.112c11.7-13.921 31.389-36.923 33.635-39.546a26.928 26.928 0 0 1 24.109-7.232l2.257.519-17.379 23.177a8 8 0 1 0 12.8 9.6l21.641-28.855 22.177 5.1-16.618 22.155a8 8 0 1 0 12.8 9.6l20.876-27.835 2.339.538 8.713 18.584-4.984 7.475a7.992 7.992 0 0 0 12.9 9.414l6.249 13.33a25.914 25.914 0 0 0 -14.893 19.42l-5.493 32.959a8 8 0 0 0 7.893 9.315h18.2l1.569 4.792a66.93 66.93 0 0 0 3.524 8.6zm123.079 68.415-34.162-40.993a8 8 0 0 0 -4.831-2.771s-15.194-2.532-28.44-4.7a53.007 53.007 0 0 1 -29.1-14.946l-.307-.307a51.625 51.625 0 0 1 -12.5-20.344l-3.373-10.3a8 8 0 0 0 -7.595-5.511h-14.556l3.94-23.644a9.97 9.97 0 0 1 9.864-8.356h.752a8 8 0 0 0 7.244-11.4l-86.436-184.363a14.647 14.647 0 0 1 26.329-12.837l43.423 95.177a16.138 16.138 0 0 0 14.649 9.423 16.1 16.1 0 0 0 15.461-20.6c-8-27.483-27.742-95.006-38.3-128.358a11.981 11.981 0 0 1 1.118-9.829 12.157 12.157 0 0 1 8.195-5.791l.5-.1a11.479 11.479 0 0 1 13.3 7.994l41.052 137a16.4 16.4 0 0 0 31.923-7.135c-3.283-21.876-14.409-95.988-19.736-131.155a12.4 12.4 0 0 1 9.9-13.989l.5-.1a11.833 11.833 0 0 1 14.037 9.94l19.864 139.891a16.565 16.565 0 0 0 32.977-2.333v-75.435a12 12 0 0 1 24 0v140a7.939 7.939 0 0 0 .081 1.132l8 56a7.987 7.987 0 0 0 1.773 3.989l35.508 42.609z" fill="#6f42c1" data-original="#000000" style="" class=""/><path d="m263.177 428.036a32 32 0 1 0 32 32 32.037 32.037 0 0 0 -32-32zm0 48a16 16 0 1 1 16-16 16.018 16.018 0 0 1 -16 16z" fill="#6f42c1" data-original="#000000" style="" class=""/><path d="m456.749 88.944a32 32 0 1 0 -32-32 32.036 32.036 0 0 0 32 32zm0-48a16 16 0 1 1 -16 16 16.019 16.019 0 0 1 16-16z" fill="#6f42c1" data-original="#000000" style="" class=""/><path d="m178.835 86.439a32 32 0 1 0 -32-32 32.036 32.036 0 0 0 32 32zm0-48a16 16 0 1 1 -16 16 16.018 16.018 0 0 1 16-16z" fill="#6f42c1" data-original="#000000" style="" class=""/><path d="m83.445 164.95a31.924 31.924 0 0 0 -1.822-10.6 40.029 40.029 0 1 0 -47.962-16.021 32.008 32.008 0 1 0 49.784 26.621zm-16-72a24 24 0 1 1 -24 24 24.028 24.028 0 0 1 24-24zm-32 72a15.95 15.95 0 0 1 9.792-14.75 39.749 39.749 0 0 0 20.031 6.689 16 16 0 1 1 -29.823 8.061z" fill="#6f42c1" data-original="#000000" style="" class=""/><path d="m101.018 213.758a8 8 0 0 0 10.912 11.7c18.5-17.257 39.343-28.361 58.679-31.27a8 8 0 0 0 -2.38-15.822c-22.499 3.385-46.368 15.953-67.211 35.392z" fill="#6f42c1" data-original="#000000" style="" class=""/><path d="m79.259 268.319a153.1 153.1 0 0 1 9.3-15.56 8 8 0 1 0 -13.231-9 169.229 169.229 0 0 0 -10.269 17.193 8 8 0 1 0 14.2 7.363z" fill="#6f42c1" data-original="#000000" style="" class=""/><path d="m62.914 285.928a8 8 0 0 0 -9.726 5.778 107.068 107.068 0 0 0 -3.509 28.394 8 8 0 0 0 7.995 7.846h.157a8 8 0 0 0 7.845-8.151 91.172 91.172 0 0 1 3.016-24.135 8 8 0 0 0 -5.778-9.732z" fill="#6f42c1" data-original="#000000" style="" class=""/></g></g></svg>
